<svg width="20" height="20" viewBox="0 0 20 20" fill="none" xmlns="http://www.w3.org/2000/svg">
<path d="M16.8086 15.8633L14.0742 13.1289C13.9375 13.0195 13.7734 12.9375 13.6094 12.9375H13.1719C13.9102 11.9805 14.375 10.7773 14.375 9.4375C14.375 6.32031 11.8047 3.75 8.6875 3.75C5.54297 3.75 3 6.32031 3 9.4375C3 12.582 5.54297 15.125 8.6875 15.125C10 15.125 11.2031 14.6875 12.1875 13.9219V14.3867C12.1875 14.5508 12.2422 14.7148 12.3789 14.8516L15.0859 17.5586C15.3594 17.832 15.7695 17.832 16.0156 17.5586L16.7812 16.793C17.0547 16.5469 17.0547 16.1367 16.8086 15.8633ZM8.6875 12.9375C6.74609 12.9375 5.1875 11.3789 5.1875 9.4375C5.1875 7.52344 6.74609 5.9375 8.6875 5.9375C10.6016 5.9375 12.1875 7.52344 12.1875 9.4375C12.1875 11.3789 10.6016 12.9375 8.6875 12.9375Z" fill="current"/>
</svg>
